#tb 0: 100/2997
#media_type 0: video
#codec_id 0: rawvideo
#dimensions 0: 352x240
#sar 0: 0/1
0,          0,          0,        1,   126720, 0x84284323
0,          1,          1,        1,   126720, 0x336fe236
0,          2,          2,        1,   126720, 0x901f1299
0,          3,          3,        1,   126720, 0x3b8be5fe
0,          4,          4,        1,   126720, 0x6da06397
0,          5,          5,        1,   126720, 0xe83de744
0,          6,          6,        1,   126720, 0xef2ed2bb
0,          7,          7,        1,   126720, 0x3ed1797f
0,          8,          8,        1,   126720, 0xf8c81785
0,          9,          9,        1,   126720, 0xf38239e0
0,         10,         10,        1,   126720, 0x005a2d6d
0,         11,         11,        1,   126720, 0xd6be525d
0,         12,         12,        1,   126720, 0x39482727
0,         13,         13,        1,   126720, 0xc8d95bc5
0,         14,         14,        1,   126720, 0xbaebd1e7
0,         15,         15,        1,   126720, 0xc94d60b3
0,         16,         16,        1,   126720, 0x80886d64
0,         17,         17,        1,   126720, 0xf99a39ee
0,         18,         18,        1,   126720, 0xbc8b6c26
0,         19,         19,        1,   126720, 0x2270acf1
0,         20,         20,        1,   126720, 0x754b5965
0,         21,         21,        1,   126720, 0x5312dc30
0,         22,         22,        1,   126720, 0x2254cc6e
0,         23,         23,        1,   126720, 0x58b4bdcc
0,         24,         24,        1,   126720, 0xd1ed63ee
0,         25,         25,        1,   126720, 0x4442dec5
0,         26,         26,        1,   126720, 0x53403cef
0,         27,         27,        1,   126720, 0x495d575f
0,         28,         28,        1,   126720, 0x3ebfc7e8
0,         29,         29,        1,   126720, 0x8f0abe01
0,         30,         30,        1,   126720, 0x9540ba61
0,         31,         31,        1,   126720, 0xb011e3cf
0,         32,         32,        1,   126720, 0x70b4b1f4
0,         33,         33,        1,   126720, 0x803b67f9
0,         34,         34,        1,   126720, 0xa1c92662
0,         35,         35,        1,   126720, 0x3a3d9e4c
0,         36,         36,        1,   126720, 0x12660aa2
0,         37,         37,        1,   126720, 0xb84c7602
0,         38,         38,        1,   126720, 0x920df241
0,         39,         39,        1,   126720, 0x5f9db168
0,         40,         40,        1,   126720, 0xe3f524a6
0,         41,         41,        1,   126720, 0x5f390fa7
0,         42,         42,        1,   126720, 0xa9503b4f
0,         43,         43,        1,   126720, 0x259c08e2
0,         44,         44,        1,   126720, 0xef7a0279
0,         45,         45,        1,   126720, 0x4d31ed35
0,         46,         46,        1,   126720, 0xe10e3c7e
0,         47,         47,        1,   126720, 0xc35f191e
0,         48,         48,        1,   126720, 0x3401e9a9
0,         49,         49,        1,   126720, 0xd50603f9
